<svg width="84" height="36" viewBox="0 0 84 36" fill="none" xmlns="http://www.w3.org/2000/svg">
<rect width="84" height="36" fill="#9B0000"/>
<path d="M24.3669 24.34C22.6335 24.34 21.2602 23.9133 20.2469 23.06C19.2335 22.1933 18.7269 21 18.7269 19.48H22.7069C22.7069 19.96 22.8602 20.3267 23.1669 20.58C23.4869 20.8333 23.8802 20.96 24.3469 20.96C24.7735 20.96 25.1402 20.8533 25.4469 20.64C25.7669 20.4267 25.9269 20.14 25.9269 19.78C25.9269 19.66 25.9135 19.56 25.8869 19.48C25.8602 19.3867 25.8069 19.3 25.7269 19.22C25.6602 19.14 25.5935 19.0733 25.5269 19.02C25.4602 18.9533 25.3535 18.8933 25.2069 18.84C25.0735 18.7733 24.9602 18.7267 24.8669 18.7C24.7735 18.66 24.6269 18.6133 24.4269 18.56C24.2402 18.5067 24.0935 18.4667 23.9869 18.44C23.8935 18.4133 23.7335 18.3733 23.5069 18.32C23.1069 18.2133 22.8069 18.1333 22.6069 18.08C22.4069 18.0267 22.1135 17.9333 21.7269 17.8C21.3402 17.6667 21.0402 17.54 20.8269 17.42C20.6135 17.2867 20.3669 17.1067 20.0869 16.88C19.8069 16.6533 19.5935 16.4133 19.4469 16.16C19.3002 15.9067 19.1735 15.5933 19.0669 15.22C18.9602 14.8467 18.9069 14.44 18.9069 14C18.9069 12.64 19.3735 11.58 20.3069 10.82C21.2535 10.0467 22.5602 9.66 24.2269 9.66C25.8935 9.66 27.1869 10.0667 28.1069 10.88C29.0402 11.6933 29.5069 12.8133 29.5069 14.24H25.6469C25.6469 13.8133 25.5069 13.4933 25.2269 13.28C24.9469 13.0533 24.6002 12.94 24.1869 12.94C23.8135 12.94 23.4935 13.02 23.2269 13.18C22.9602 13.34 22.8269 13.58 22.8269 13.9C22.8269 14.02 22.8535 14.1333 22.9069 14.24C22.9602 14.3467 23.0469 14.4467 23.1669 14.54C23.2869 14.62 23.4002 14.6933 23.5069 14.76C23.6269 14.8133 23.7935 14.88 24.0069 14.96C24.2335 15.0267 24.4135 15.08 24.5469 15.12C24.6935 15.16 24.9135 15.2133 25.2069 15.28C25.6069 15.3867 25.9135 15.4733 26.1269 15.54C26.3402 15.5933 26.6402 15.6933 27.0269 15.84C27.4269 15.9733 27.7335 16.1067 27.9469 16.24C28.1735 16.3733 28.4335 16.5533 28.7269 16.78C29.0202 17.0067 29.2402 17.2533 29.3869 17.52C29.5469 17.7867 29.6802 18.1067 29.7869 18.48C29.9069 18.8533 29.9669 19.26 29.9669 19.7C29.9669 21.18 29.4535 22.3267 28.4269 23.14C27.4002 23.94 26.0469 24.34 24.3669 24.34ZM40.7377 24L39.9577 21.72H34.9977L34.2177 24H30.0977L35.5977 10H39.3577L44.9777 24H40.7377ZM39.0177 18.7L37.4777 14.36L35.9377 18.7H39.0177ZM50.2405 20.46H55.2205V24H46.3405V10H50.2405V20.46ZM60.8055 20.66H66.0855V24H56.9655V10H65.9255V13.34H60.8055V15.4H65.4055V18.56H60.8055V20.66Z" fill="white"/>
</svg>
